<svg width="72" height="67" viewBox="0 0 72 67" fill="none" xmlns="http://www.w3.org/2000/svg">
<path d="M71.1636 9.46488C70.842 7.54156 70.1236 5.78153 69.1204 4.32754C68.9089 4.01074 68.6879 3.72702 68.4483 3.44331C66.6709 1.3228 64.1762 0 61.4509 0H9.89686C7.17157 0 4.68582 1.3228 2.90004 3.44331C2.66105 3.72702 2.44004 4.01074 2.22795 4.32754C1.2242 5.78136 0.505845 7.54156 0.193141 9.46488C0.0646589 10.2072 0 10.9743 0 11.7498V54.7346C0 56.3836 0.294588 57.9688 0.819942 59.4003C1.30725 60.7667 2.02575 62.0032 2.8999 63.04C3.12147 63.3023 3.3415 63.5435 3.5816 63.7834C5.29367 65.4667 7.50364 66.4833 9.89686 66.4833H61.4509C63.845 66.4833 66.0646 65.4667 67.7667 63.7728C68.0062 63.5435 68.2273 63.3023 68.4483 63.04C69.322 62.0032 70.0404 60.7667 70.5377 59.4003V59.3897C71.063 57.9582 71.3477 56.3836 71.3477 54.7348V11.7498C71.3478 10.9743 71.2841 10.2072 71.1636 9.46488ZM6.48108 7.69409C7.36527 6.64558 8.55268 6.01082 9.89686 6.01082H61.4509C62.7951 6.01082 63.993 6.64558 64.8667 7.69409C65.0231 7.88086 65.1704 8.08898 65.3004 8.29577L38.2792 36.253C37.534 37.0284 36.6134 37.4114 35.6739 37.4114C34.7439 37.4114 33.8239 37.0284 33.0687 36.253L6.05787 8.28386C6.17744 8.07707 6.32473 7.88086 6.48108 7.69409ZM5.06318 54.7346V14.5039L24.6175 34.7553L5.07308 54.9852C5.06318 54.9085 5.06318 54.8221 5.06318 54.7346ZM61.4509 60.4713H9.89686C9.02159 60.4713 8.20263 60.1982 7.50364 59.7182L28.1245 38.3843L30.0497 40.3724C31.6607 42.0344 33.6767 42.8761 35.6739 42.8761C37.6814 42.8761 39.6972 42.0344 41.3081 40.3724L43.2323 38.3843L63.8451 59.7182C63.1452 60.1982 62.3262 60.4713 61.4509 60.4713ZM66.2846 54.7346C66.2846 54.8221 66.2846 54.9085 66.2751 54.9852L46.7309 34.7671L66.2846 14.5147V54.7346Z" fill="#778C58"/>
</svg>
