<svg width="87" height="81" viewBox="0 0 87 81" fill="none" xmlns="http://www.w3.org/2000/svg">
<g clip-path="url(#clip0_41_114)">
<path fill-rule="evenodd" clip-rule="evenodd" d="M41.478 0.702576C64.3862 0.702576 82.9559 19.1305 82.9559 41.8668C82.9559 60.0501 71.0849 75.4753 54.614 80.9235C52.5111 81.329 51.7645 80.0435 51.7645 78.9474C51.7645 77.5904 51.8142 73.1581 51.8142 67.6497C51.8142 63.8115 50.487 61.3065 48.9979 60.0297C58.2351 59.0099 67.9409 55.5287 67.9409 39.7182C67.9409 35.2215 66.3315 31.5521 63.6686 28.6694C64.1 27.6296 65.5227 23.4426 63.2622 17.7736C63.2622 17.7736 59.7863 16.6706 51.8682 21.9943C48.5541 21.0829 45.0036 20.6244 41.478 20.6083C37.9523 20.6244 34.406 21.0829 31.096 21.9943C23.1696 16.6706 19.6854 17.7736 19.6854 17.7736C17.4332 23.4426 18.8559 27.6296 19.2831 28.6694C16.6327 31.5521 15.0109 35.2215 15.0109 39.7182C15.0109 55.4886 24.696 59.0232 33.9082 60.0631C32.722 61.0909 31.6477 62.904 31.2744 65.5659C28.9101 66.6177 22.9041 68.4382 19.2043 62.1469C19.2043 62.1469 17.0101 58.1918 12.8457 57.9027C12.8457 57.9027 8.80162 57.8507 12.5637 60.4042C12.5637 60.4042 15.2805 61.6688 17.1677 66.4265C17.1677 66.4265 19.6025 73.7735 31.1417 71.2843C31.1624 74.725 31.1997 77.9678 31.1997 78.9474C31.1997 80.0355 30.4365 81.3088 28.3668 80.9274C11.8834 75.4873 0 60.0541 0 41.8668C0 19.1305 18.5738 0.702576 41.478 0.702576Z" fill="#778C58"/>
</g>
<defs>
<clipPath id="clip0_41_114">
<rect width="87" height="81" fill="white"/>
</clipPath>
</defs>
</svg>
