<svg width="99" height="104" viewBox="0 0 99 104" fill="none" xmlns="http://www.w3.org/2000/svg">
<path d="M63.2517 16.25H35.7452C30.3688 16.2543 25.2138 18.4998 21.4121 22.4935C17.6104 26.4872 15.4728 31.9026 15.4688 37.5505V66.4462C15.472 72.0947 17.6092 77.5109 21.411 81.5053C25.2128 85.4997 30.3683 87.7457 35.7452 87.75H63.2517C68.6284 87.7448 73.7834 85.4986 77.585 81.5044C81.3866 77.5102 83.5241 72.0945 83.5282 66.4462V37.5505C83.5257 31.902 81.3887 26.4857 77.5866 22.4916C73.7846 18.4976 68.6286 16.2526 63.2517 16.25ZM76.6848 66.4462C76.684 70.1886 75.2684 73.7774 72.7494 76.4236C70.2304 79.0699 66.8141 80.5569 63.2517 80.5578H35.7452C33.9813 80.5578 32.2346 80.1927 30.605 79.4835C28.9754 78.7743 27.4948 77.7348 26.2477 76.4244C25.0005 75.114 24.0114 73.5583 23.3366 71.8462C22.6619 70.1342 22.3148 68.2992 22.3152 66.4462V37.5505C22.3148 35.6977 22.6619 33.8629 23.3367 32.151C24.0115 30.4391 25.0007 28.8837 26.2479 27.5735C27.495 26.2634 28.9757 25.2242 30.6053 24.5153C32.2349 23.8065 33.9814 23.4418 35.7452 23.4422H63.2517C66.8133 23.4431 70.2288 24.9298 72.7472 27.5754C75.2657 30.221 76.6809 33.809 76.6817 37.5505L76.6848 66.4462Z" fill="#778C58"/>
<path d="M49.5001 33.514C39.7919 33.514 31.9028 41.8048 31.9028 52C31.9028 62.1953 39.795 70.486 49.5001 70.486C59.2052 70.486 67.0973 62.1953 67.0973 52C67.0973 41.8048 59.2083 33.514 49.5001 33.514ZM49.5001 63.2938C46.6488 63.2942 43.9141 62.1047 41.8977 59.9871C39.8812 57.8694 38.7482 54.9969 38.7478 52.0016C38.7473 49.0063 39.8796 46.1336 41.8955 44.0153C43.9114 41.897 46.6457 40.7067 49.497 40.7063C52.3483 40.7058 55.0829 41.8953 57.0994 44.013C59.1158 46.1307 60.2489 49.0031 60.2493 51.9984C60.2497 54.9937 59.1175 57.8665 57.1016 59.9848C55.0857 62.103 52.3514 63.2933 49.5001 63.2938ZM67.1345 29.2208C67.9682 29.2214 68.783 29.4817 69.476 29.9687C70.169 30.4557 70.709 31.1475 71.0278 31.9568C71.3465 32.7661 71.4298 33.6565 71.267 34.5155C71.1042 35.3745 70.7026 36.1635 70.1131 36.7828C69.5235 37.4021 68.7725 37.824 67.9548 37.995C67.1371 38.166 66.2895 38.0786 65.5191 37.7437C64.7487 37.4088 64.0901 36.8415 63.6265 36.1136C63.1629 35.3856 62.9152 34.5296 62.9146 33.6538C62.9146 31.2098 64.4924 29.2208 67.1345 29.2208Z" fill="#778C58"/>
</svg>
