<svg width="72" height="74" viewBox="0 0 72 74" fill="none" xmlns="http://www.w3.org/2000/svg">
<path d="M66.2385 0.00663647H6.16486C5.39056 -0.0306376 4.61667 0.0893713 3.88755 0.359863C3.15843 0.630354 2.4884 1.04596 1.91574 1.58288C1.34313 2.11984 0.879146 2.7676 0.550428 3.48903C0.221711 4.21051 0.0346492 4.99151 0 5.78736V67.6643C0.045359 69.3296 0.709453 70.9145 1.85589 72.0924C3.00233 73.2707 4.54417 73.9533 6.16486 74H66.2385C67.8139 73.9279 69.2993 73.224 70.3761 72.0396C71.453 70.8553 72.0352 69.2848 71.9983 67.6643V5.78736C72.0114 5.01274 71.8701 4.24363 71.5835 3.5271C71.2968 2.81061 70.8707 2.16183 70.3311 1.62052C69.792 1.07926 69.1508 0.656946 68.447 0.379425C67.7432 0.101904 66.9918 -0.0249494 66.2385 0.00663647ZM22.4995 61.6986H12.0147V28.7254H22.4995V61.6986ZM17.5046 23.7307C16.773 23.7569 16.0439 23.6274 15.3634 23.3502C14.6828 23.073 14.0653 22.6541 13.5498 22.1199C13.0342 21.5857 12.6317 20.9478 12.3676 20.2461C12.1034 19.5444 11.9833 18.7942 12.0147 18.0425C11.9824 17.2827 12.1049 16.5243 12.3745 15.8161C12.6441 15.1078 13.0547 14.4652 13.5801 13.9297C14.1055 13.394 14.734 12.9772 15.4253 12.706C16.1167 12.4346 16.8556 12.3149 17.5946 12.3543C18.3262 12.3281 19.0553 12.4576 19.7358 12.7348C20.4164 13.012 21.0339 13.4309 21.5494 13.965C22.065 14.4992 22.4675 15.1372 22.7316 15.8389C22.9958 16.5406 23.1159 17.2908 23.0845 18.0425C23.1168 18.8023 22.9943 19.5606 22.7247 20.2689C22.4551 20.9772 22.0445 21.6197 21.5191 22.1553C20.9937 22.6909 20.3652 23.1077 19.6739 23.379C18.9825 23.6503 18.2436 23.7701 17.5046 23.7307ZM60.0286 61.6986H49.4989V43.6628C49.4989 39.3619 48.0139 36.4022 44.279 36.4022C43.1189 36.4124 41.9899 36.7911 41.0476 37.4867C40.1049 38.1822 39.3948 39.1603 39.0141 40.2868C38.7216 41.1313 38.5992 42.028 38.6541 42.9228V61.6986H28.3043V28.7254H38.6541V33.35C39.5743 31.6125 40.9437 30.1706 42.6113 29.1828C44.279 28.1954 46.1797 27.701 48.1039 27.7541C54.8987 27.7541 60.0286 32.3788 60.0286 42.2292V61.6986Z" fill="#778C58"/>
</svg>
