<svg width="1015" height="383" viewBox="0 0 1015 383" fill="none" xmlns="http://www.w3.org/2000/svg">
<path d="M125.472 133C117.391 141.781 97.2373 172.961 91.0916 183.059C81.6483 198.574 72.6705 214.425 62.7062 229.604C58.7672 235.605 26.5576 298.201 47.5 296.372C73.7904 294.076 102.436 236.713 122.781 222.305C142.229 208.533 160.376 192.354 180.897 180.067C187.462 176.137 228.6 129.957 228.6 146.085C228.6 157.402 217.124 193.407 211.73 203.161C199.02 226.145 184.907 248.504 168.417 269.091C154.807 286.083 140.44 302.77 125.472 318.628C118.019 326.524 113.919 346.668 122.781 340.313C167.558 308.2 173.639 259.495 222.986 232.237C247.839 218.509 275.853 212.269 302.269 202.203C309.914 199.291 314.53 166.068 323.223 166.068C329.778 166.068 331.508 212.325 329.921 215.007C313.96 241.967 287.491 263.306 267.766 287.517C262.472 294.016 230.333 333.475 231.534 325.249C232.405 319.287 260.239 294.668 264.096 290.748C278.544 276.065 298.634 288.38 312.5 273.159C324.961 259.48 331.24 218.487 343.869 204.956C359.906 187.773 381.194 176.354 402.23 166.068C417.024 158.834 436.265 146.085 453.74 146.085C462.753 146.085 448.929 182.248 447.867 184.375C435.115 209.926 414.57 235.313 396.48 257.604C389.289 266.464 357.653 312.504 348.162 319.465C332.814 330.723 401.768 249.977 414.08 235.587C438.5 207.045 467.556 179.633 499.254 158.824C502.438 156.734 497.584 171.354 499.254 180.067C505.091 210.509 505.414 213.32 488.855 235.587C469.48 261.64 450.554 288.011 431.227 314.081C428.993 317.095 370.168 377.615 414.08 314.081C427.11 285.409 455.849 273.976 473.805 248.031C489.096 225.938 505.79 206.407 524.214 186.888C529.557 181.227 538.613 140.15 533.007 158.824C520.53 200.386 480.983 253.467 473.071 296.372C471.876 302.857 467.592 313.658 463.65 319.226C462.831 320.383 459.415 323.221 463.895 319.465C475.38 309.838 487.245 300.578 499.254 291.586C530.486 268.201 566.765 189.949 600.283 169.777C607.884 165.202 615.956 211.634 625.521 210.699C636.939 209.582 621.458 241.269 619.892 244.681C606.896 273.006 585.586 293.472 565.813 316.953C561.285 322.33 493.227 334.815 488.855 340.313C483.499 347.047 563.244 308.221 566.058 304.269C594.867 263.807 627.104 226.007 653.784 184.016C659.959 174.297 664.723 164.057 670.546 154.222C670.796 153.799 675 148.601 675.684 149.196C678.602 151.733 675.157 167.348 674.706 169.777C671.82 185.297 665.33 199.136 656.231 212.015C639.641 235.498 627.197 257.64 606.189 278.184C589.565 294.443 565.226 299.684 585.634 268.612C611.088 229.858 636.905 192.18 660.268 152.068C662.645 147.988 650.644 161.553 651.963 166.068C653.952 172.877 667.652 157.298 666.875 164.273C663.69 192.872 653.302 221.626 645.341 249.228C639.075 270.956 602.633 318.903 595.667 340.313C594.752 343.127 632.313 315.057 635.064 313.842C653.148 305.849 666.573 290.926 679.233 276.509C691.135 262.956 702.485 249.068 712.39 234.032C722.009 219.429 748.262 153.607 759.617 140.173C768.407 129.775 737.555 258.615 737.039 276.509C736.312 301.761 725.448 318.32 712.39 340.313C703.807 354.768 750.419 241.897 759.617 227.81C772.888 207.485 818.807 156.977 836.943 140.173C844.591 133.087 810.515 174.613 810.515 176.597C810.515 204.843 809.952 233.161 797.301 259.279C796.505 260.923 803.024 315.442 803.908 313.842C809.468 303.783 807.903 244.618 815.532 236.066C823.996 226.577 799.084 211.719 809.89 204.956C812.632 203.239 843.061 133 836.943 158.824C836.571 168.653 852.366 281.451 843.061 287.517" stroke="#B5BF9F" stroke-width="80" stroke-linecap="round"/>
<g filter="url(#filter0_i_49_121)">
<path d="M63.1641 158.422C81.9203 157.198 98.4129 154.521 112.642 154.521C152.742 154.521 172.791 167.907 172.791 194.68C172.791 207.071 169.396 217.933 162.605 227.266C159.048 232.314 153.55 236.368 146.112 239.428C138.674 242.335 129.7 243.788 119.19 243.788H83.2947V310.853L63.1641 315.156L68.2375 236.904L63.1641 158.422ZM112.884 156.816C103.506 156.816 93.643 157.351 83.2947 158.422V241.493H119.19C141.989 240.575 162.605 224.665 162.605 194.68C162.605 182.441 158.401 175.442 151.61 168.863C144.819 162.132 126.305 156.816 112.884 156.816Z" fill="#3D3D3D"/>
<path d="M227.298 303.682C210.321 303.682 196.496 299.093 185.824 289.913C175.153 280.734 173.924 262.452 173.924 243.329C173.924 224.206 175.314 213.497 186.309 202.941C197.466 192.385 211.533 187.107 228.511 187.107C245.65 187.107 259.556 191.696 270.228 200.876C280.899 210.055 283.066 224.206 283.066 243.329C283.066 262.452 280.657 277.292 269.5 287.848C258.505 298.404 244.438 303.682 227.298 303.682ZM228.996 188.943C216.707 188.943 206.521 194.144 198.436 204.547C190.352 214.797 186.309 229.178 186.309 247.689C186.309 266.048 190.028 279.663 197.466 288.537C204.904 297.41 214.767 301.846 227.056 301.846C239.344 301.846 249.531 296.721 257.616 286.471C265.7 276.068 269.742 261.688 269.742 243.329C269.742 224.818 266.024 211.126 258.586 202.252C251.148 193.379 241.285 188.943 228.996 188.943Z" fill="#3D3D3D"/>
<path d="M347.122 196.974V192.155C339.845 194.909 333.216 200.493 327.233 208.907C321.251 217.169 318.098 224.971 317.774 232.314L317.405 298.978L300.797 301.846V187.107L316.415 178.501L317.774 223.594C320.362 214.721 325.293 206.383 332.569 198.581C339.845 190.625 348.092 186.495 357.308 186.189H358.278C361.512 186.189 364.18 187.26 366.282 189.402C368.546 191.39 369.678 193.915 369.678 196.974C369.678 200.034 368.546 202.558 366.282 204.547C364.18 206.536 361.512 207.53 358.278 207.53C355.045 207.53 352.377 206.536 350.275 204.547C348.173 202.558 347.122 200.034 347.122 196.974Z" fill="#3D3D3D"/>
<path d="M386.746 188.943V187.107H391.84V164.159L410.398 155.553L408.817 187.107H445.926V188.943H408.817V272.473C408.817 282.417 409.949 289.607 412.213 294.044C414.638 298.481 419.57 300.699 427.008 300.699C434.607 300.699 442.288 299.246 450.049 296.339L450.776 298.175C442.692 301.081 433.395 302.535 422.884 302.535C412.536 302.535 404.775 300.546 399.601 296.568C394.427 292.438 391.84 284.329 391.84 272.244V188.943H386.746Z" fill="#3D3D3D"/>
<path d="M482.479 176.321V187.107H501.639V188.943H482.479L484.676 300.699L465.501 301.846V188.943H460.408V187.107H465.501V176.321C465.501 159.646 469.301 147.789 476.9 140.752C484.5 133.562 508.626 129.89 525.604 129.737L534.699 138.342C523.542 138.495 494.606 135.321 489.755 142.358C484.904 149.243 482.479 160.564 482.479 176.321Z" fill="#3D3D3D"/>
<path d="M682.616 301.846C668.387 301.846 659.414 298.328 655.695 291.29C654.886 289.76 654.482 288.384 654.482 287.16V129.967L671.46 124V285.553C671.46 289.99 672.349 293.432 674.127 295.88C676.068 298.175 678.008 299.399 679.948 299.552L682.616 300.01H690.135V301.846H682.616Z" fill="#3D3D3D"/>
<path d="M728.424 301.846C721.794 301.846 716.701 300.469 713.144 297.716C709.748 294.962 707.97 292.208 707.808 289.454L707.565 285.553V187.107L723.573 181.37L724.543 285.553C724.543 289.99 725.433 293.432 727.211 295.88C729.151 298.175 731.011 299.399 732.789 299.552L735.7 300.01H743.219V301.846H728.424ZM709.021 161.405C707.08 159.569 706.11 157.275 706.11 154.521C706.11 151.767 707.08 149.472 709.021 147.636C710.961 145.648 713.386 144.653 716.297 144.653C719.207 144.653 721.633 145.648 723.573 147.636C725.675 149.472 726.726 151.767 726.726 154.521C726.726 157.275 725.675 159.569 723.573 161.405C721.633 163.241 719.207 164.159 716.297 164.159C713.386 164.159 710.961 163.241 709.021 161.405Z" fill="#3D3D3D"/>
<path d="M575.947 303.682C558.969 303.682 545.145 299.093 534.473 289.913C523.801 280.734 522.572 262.452 522.572 243.329C522.572 224.206 523.963 213.497 534.958 202.941C546.115 192.385 560.182 187.107 577.159 187.107C594.299 187.107 608.204 191.696 618.876 200.876C629.548 210.055 631.714 224.206 631.714 243.329C631.714 262.452 629.305 277.292 618.148 287.848C607.153 298.404 593.086 303.682 575.947 303.682ZM577.645 188.943C565.356 188.943 555.169 194.144 547.085 204.547C539 214.797 534.958 229.178 534.958 247.689C534.958 266.048 538.677 279.663 546.115 288.537C553.553 297.41 563.416 301.846 575.704 301.846C587.993 301.846 598.18 296.721 606.264 286.471C614.349 276.068 618.391 261.688 618.391 243.329C618.391 224.818 614.672 211.126 607.234 202.252C599.796 193.379 589.933 188.943 577.645 188.943Z" fill="#3D3D3D"/>
<path d="M227.298 303.682C210.321 303.682 196.496 299.093 185.824 289.913C175.153 280.734 173.924 262.452 173.924 243.329C173.924 224.206 175.314 213.497 186.309 202.941C197.466 192.385 211.533 187.107 228.511 187.107C245.65 187.107 259.556 191.696 270.228 200.876C280.899 210.055 283.066 224.206 283.066 243.329C283.066 262.452 280.657 277.292 269.5 287.848C258.505 298.404 244.438 303.682 227.298 303.682ZM228.996 188.943C216.707 188.943 206.521 194.144 198.436 204.547C190.352 214.797 186.309 229.178 186.309 247.689C186.309 266.048 190.028 279.663 197.466 288.537C204.904 297.41 214.767 301.846 227.056 301.846C239.344 301.846 249.531 296.721 257.616 286.471C265.7 276.068 269.742 261.688 269.742 243.329C269.742 224.818 266.024 211.126 258.586 202.252C251.148 193.379 241.285 188.943 228.996 188.943Z" fill="#3D3D3D"/>
<path d="M809.39 300.699C792.412 300.699 778.588 296.109 767.916 286.93C757.244 277.751 756.015 259.469 756.015 240.346C756.015 221.223 757.406 210.514 768.401 199.958C779.558 189.402 793.625 184.124 810.603 184.124C827.742 184.124 841.647 188.713 852.319 197.892C862.991 207.071 865.157 221.223 865.157 240.346C865.157 259.469 862.748 274.309 851.591 284.865C840.596 295.421 826.529 300.699 809.39 300.699ZM811.088 185.959C798.799 185.959 788.612 191.161 780.528 201.564C772.443 211.814 768.401 226.195 768.401 244.706C768.401 263.064 772.12 276.68 779.558 285.553C786.996 294.427 796.859 298.863 809.147 298.863C821.436 298.863 831.622 293.738 839.707 283.488C847.792 273.085 851.834 258.704 851.834 240.346C851.834 221.835 848.115 208.142 840.677 199.269C833.239 190.396 823.376 185.959 811.088 185.959Z" fill="#3D3D3D"/>
</g>
<path d="M978.258 100.139C980 97.2894 985.211 97.6027 986.374 100.627L991.458 113.855C991.813 114.779 992.633 115.543 993.723 115.964L1009.33 121.999C1012.89 123.379 1012.48 127.536 1008.69 128.473L992.086 132.571C990.926 132.857 989.966 133.514 989.434 134.384L981.817 146.849C980.075 149.699 974.864 149.385 973.701 146.361L968.617 133.133C968.262 132.209 967.442 131.445 966.352 131.024L950.747 124.989C947.18 123.609 947.59 119.452 951.386 118.515L967.989 114.417C969.148 114.131 970.108 113.474 970.64 112.604L978.258 100.139Z" fill="#B5BF9F"/>
<path d="M924.066 29.9692C927.403 23.3033 937.504 24.0929 939.796 31.1988L946.901 53.2195C947.601 55.389 949.2 57.1879 951.316 58.1873L972.794 68.3321C979.726 71.6057 978.987 81.351 971.643 83.5089L948.888 90.1959C946.647 90.8546 944.795 92.3843 943.776 94.4194L933.436 115.076C930.099 121.743 919.998 120.953 917.705 113.846L910.6 91.8262C909.901 89.6567 908.302 87.8574 906.186 86.858L884.707 76.7134C877.776 73.4398 878.515 63.6945 885.858 61.5366L908.613 54.8494C910.855 54.1907 912.706 52.6614 913.725 50.6262L924.066 29.9692Z" fill="#B5BF9F"/>
<path d="M978.258 100.139C980 97.2894 985.211 97.6027 986.374 100.627L991.458 113.855C991.813 114.779 992.633 115.543 993.723 115.964L1009.33 121.999C1012.89 123.379 1012.48 127.536 1008.69 128.473L992.086 132.571C990.926 132.857 989.966 133.514 989.434 134.384L981.817 146.849C980.075 149.699 974.864 149.385 973.701 146.361L968.617 133.133C968.262 132.209 967.442 131.445 966.352 131.024L950.747 124.989C947.18 123.609 947.59 119.452 951.386 118.515L967.989 114.417C969.148 114.131 970.108 113.474 970.64 112.604L978.258 100.139Z" fill="#B5BF9F"/>
<path d="M924.066 29.9692C927.403 23.3033 937.504 24.0929 939.796 31.1988L946.901 53.2195C947.601 55.389 949.2 57.1879 951.316 58.1873L972.794 68.3321C979.726 71.6057 978.987 81.351 971.643 83.5089L948.888 90.1959C946.647 90.8546 944.795 92.3843 943.776 94.4194L933.436 115.076C930.099 121.743 919.998 120.953 917.705 113.846L910.6 91.8262C909.901 89.6567 908.302 87.8574 906.186 86.858L884.707 76.7134C877.776 73.4398 878.515 63.6945 885.858 61.5366L908.613 54.8494C910.855 54.1907 912.706 52.6614 913.725 50.6262L924.066 29.9692Z" fill="#B5BF9F"/>
<defs>
<filter id="filter0_i_49_121" x="63.1641" y="124" width="801.993" height="195.156" filterUnits="userSpaceOnUse" color-interpolation-filters="sRGB">
<feFlood flood-opacity="0" result="BackgroundImageFix"/>
<feBlend mode="normal" in="SourceGraphic" in2="BackgroundImageFix" result="shape"/>
<feColorMatrix in="SourceAlpha" type="matrix" values="0 0 0 0 0 0 0 0 0 0 0 0 0 0 0 0 0 0 127 0" result="hardAlpha"/>
<feOffset dy="4"/>
<feGaussianBlur stdDeviation="2"/>
<feComposite in2="hardAlpha" operator="arithmetic" k2="-1" k3="1"/>
<feColorMatrix type="matrix" values="0 0 0 0 0 0 0 0 0 0 0 0 0 0 0 0 0 0 0.25 0"/>
<feBlend mode="normal" in2="shape" result="effect1_innerShadow_49_121"/>
</filter>
</defs>
</svg>
